# Blender v2.83 (sub 2) OBJ File: '9_improviz.blend'
# www.blender.org
mtllib 9_improviz.mtl
o Icosphere
v -0.021980 -0.182970 -0.702487
v -0.126733 0.850143 -1.123976
v 0.242249 -0.748730 -1.506754
v 0.326415 -0.054472 -1.047343
v 0.357950 -0.060720 -0.653718
v -0.395673 -0.103075 -0.527668
v -0.002858 0.428074 -1.624150
v -0.307712 0.373234 -1.006045
v -0.182876 0.675402 -0.624343
v 0.137449 -0.682904 -0.605154
v 0.892235 -0.538967 -0.292734
v 0.649087 -0.699512 -0.852456
v 1.182947 -0.147857 0.000176
v -0.048722 -0.402746 -0.599651
v -2.110701 -0.420802 -0.704534
v 1.252513 -0.038113 -0.590240
v 0.869978 -0.262692 -0.948022
v 0.467805 0.259125 -1.483793
v 0.623469 -0.115937 -0.212493
v 0.938244 0.133133 -0.189485
v 0.235516 0.568109 -1.708027
v 1.262679 0.245472 -0.176184
v 0.948643 0.234063 -0.008605
v -0.634190 0.337114 -0.561488
v 0.026762 0.609274 -0.882354
v 0.828693 0.319560 -1.215660
v 0.546012 0.895407 -0.602867
v 1.267887 -0.388374 -0.620542
v 0.903214 -0.280653 -0.543256
v 0.432199 -0.180588 -0.224363
v 0.191274 -0.095225 -0.543862
v 0.614460 -0.360321 -1.513815
v -1.204622 -0.127876 -0.369103
v 0.216104 -0.223093 -1.682784
v 0.282809 0.030889 -1.326071
v 1.003689 0.388740 -0.491758
v -0.123459 0.159105 -0.816323
v 1.076627 0.383993 -0.979365
v -0.760158 0.509201 -0.488495
v 0.440567 0.600884 -1.144486
v 0.117295 0.680335 -1.143474
v 0.869642 0.760127 -0.512414
v 0.764669 0.607253 -0.316667
v 0.242807 0.636486 -0.683399
v 0.256767 0.449913 -0.598998
v 0.571961 0.397395 -1.101395
v 1.140470 0.223159 -0.416793
v 0.292352 0.491564 -1.488617
v -1.334760 0.832215 -0.978703
v 0.371945 0.590399 -1.441924
v -0.264999 0.664666 -1.359956
v -0.448488 0.192104 -0.796389
v -0.051378 0.044629 -0.539179
v -0.094172 0.399354 -0.827792
v 0.071483 0.455853 -0.365404
v 0.557710 0.032407 -0.194160
v 0.939500 -0.125034 -0.121076
v 1.037609 0.442097 -0.308331
v -1.021095 0.106242 -1.537261
v -0.620043 0.174694 -1.816983
v -1.495816 -0.087069 -1.336533
v 1.406619 -0.016245 0.044439
v 0.365803 -0.220790 -1.664999
v -0.171668 0.101661 -1.007052
v -0.480292 -0.021850 -1.313520
v 0.074752 -0.172381 -1.253277
v -0.462037 -0.567104 -0.666910
v 0.892001 -0.187638 -0.006522
v 1.009578 -0.290022 -0.053124
v 1.183141 -0.373949 -0.220575
v 0.969455 -0.473837 -0.805790
v 1.184096 -0.615162 -0.564616
v 0.027713 -0.629546 -1.033170
v -1.298261 -0.726937 -1.035043
v 0.297784 -0.653760 -1.024002
v 0.239368 -0.910798 -1.128219
v 0.771688 -0.777678 -0.916049
v 0.263319 -0.728951 -1.188568
v 1.011330 -0.555291 -0.507346
v 0.699022 -0.627234 -0.424160
v 0.360411 -0.816699 -0.742011
v -0.032412 -0.244234 -1.528023
v 0.148575 -0.062459 -1.637606
v 0.932695 0.335575 -0.606865
v -0.183953 0.639277 -0.601364
v 0.653621 0.468501 -0.258537
v 0.389671 0.186047 -0.333562
v 1.020968 0.078408 -0.394974
v 0.008478 0.192139 -1.143888
v 0.437075 0.884294 -1.072231
v -0.076580 0.556299 -1.271633
v 0.020721 0.499917 -1.340742
v 0.388147 0.204615 -0.275840
v 0.416045 -0.042003 -0.502895
v 0.714370 0.554095 -0.791275
v -0.036685 0.176370 -1.699762
v -0.089573 0.352378 -1.366448
v 0.273984 0.055490 -0.479527
v 0.033087 -0.249738 -0.373715
v 0.654960 0.219862 -0.704179
v 0.105042 0.073927 -1.307076
v -0.723716 0.326915 -1.145750
v 1.298137 -0.171414 -0.175181
v 0.973665 0.111259 -1.222143
v 0.347342 -0.301694 -1.755343
v 0.053086 -0.289492 -1.256836
v -1.355392 -0.245325 -1.004308
v -1.576871 -0.100843 -0.318209
v -0.079575 -0.282380 -0.733625
v 0.504649 -0.358531 -0.276391
v -0.263379 -0.761923 -1.136375
v 0.240568 -0.441868 -1.673956
v 1.047604 -0.546798 -1.081298
v 0.812788 -0.692338 -1.244165
vt 0.684920 0.131362
vt 0.659355 0.117811
vt 0.617368 0.128707
vt 0.061744 0.050516
vt 0.098778 0.058976
vt 0.081570 0.016176
vt 0.125000 0.059048
vt 0.143248 0.090407
vt 0.106095 0.033749
vt 0.262572 0.165945
vt 0.262322 0.058891
vt 0.220348 0.114897
vt 0.433250 0.047822
vt 0.479610 0.060153
vt 0.462047 0.021350
vt 0.697500 0.194860
vt 0.728042 0.140507
vt 0.644356 0.176719
vt 0.673139 0.252636
vt 0.655988 0.201712
vt 0.827140 0.202140
vt 0.861182 0.139009
vt 0.837587 0.137415
vt 0.885509 0.210167
vt 0.793391 0.224840
vt 0.880205 0.265017
vt 0.333106 0.193476
vt 0.375134 0.167638
vt 0.736544 0.199696
vt 0.708961 0.229682
vt 0.735191 0.228318
vt 0.922185 0.187492
vt 0.903574 0.166958
vt 0.376282 0.247015
vt 0.582620 0.210356
vt 0.566059 0.186793
vt 0.540106 0.238184
vt 0.611162 0.259955
vt 0.910819 0.330643
vt 0.946269 0.359625
vt 0.961487 0.333246
vt 0.464631 0.325992
vt 0.409091 0.329236
vt 0.419912 0.371277
vt 0.378786 0.345117
vt 0.356554 0.308961
vt 0.583808 0.339854
vt 0.608763 0.365539
vt 0.663666 0.338882
vt 0.551023 0.314357
vt 0.586702 0.299129
vt 0.590909 0.393652
vt 0.525102 0.386430
vt 0.488636 0.374379
vt 0.500000 0.393652
vt 0.355049 0.368423
vt 0.389709 0.411875
vt 0.394403 0.393613
vt 0.344788 0.408902
vt 0.379427 0.435356
vt 0.287265 0.327899
vt 0.317549 0.304414
vt 0.318232 0.394178
vt 0.210295 0.405719
vt 0.174823 0.446368
vt 0.182873 0.470555
vt 0.190222 0.304460
vt 0.140808 0.297421
vt 0.160598 0.379039
vt 0.868927 0.395031
vt 0.901041 0.425703
vt 0.918516 0.384477
vt 0.948895 0.403437
vt 0.886946 0.343522
vt 0.852272 0.374379
vt 0.832371 0.331955
vt 0.721697 0.419353
vt 0.752038 0.379866
vt 0.696946 0.383145
vt 0.713870 0.359667
vt 0.670440 0.357800
vt 0.585540 0.265907
vt 0.457556 0.248470
vt 0.526046 0.218780
vt 0.415946 0.283749
vt 0.286898 0.219501
vt 0.286823 0.251903
vt 0.217154 0.220159
vt 0.155009 0.255188
vt 0.923329 0.284863
vt 0.966336 0.283918
vt 0.959848 0.263420
vt 0.912068 0.251280
vt 0.863146 0.324046
vt 0.870878 0.284389
vt 0.825667 0.256870
vt 0.751869 0.258552
vt 0.775393 0.284251
vt 0.771360 0.336430
vt 0.722666 0.298810
vt 0.717455 0.256049
vt 0.683036 0.322560
vt 0.661126 0.285883
vt 0.409526 0.192175
vt 0.487165 0.200760
vt 0.461816 0.156681
vt 0.065037 0.254538
vt 0.098607 0.268443
vt 0.155606 0.229103
vt 0.098987 0.323946
vt 0.064330 0.220709
vt 0.785868 0.190286
vt 0.639642 0.216371
vt 0.621995 0.218424
vt 0.601433 0.191614
vt 0.402506 0.114820
vt 0.464553 0.128369
vt 0.504943 0.113929
vt 0.409091 0.078731
vt 0.333626 0.105717
vt 0.140050 0.180917
vt 0.167455 0.128306
vt 0.128396 0.127183
vt 0.053708 0.099960
vt 0.091094 0.121221
vt 0.026352 0.139719
vt 0.052115 0.120667
vt 0.056460 0.181625
vt 0.027809 0.157461
vt 0.602599 0.062847
vt 0.627553 0.107322
vt 0.666709 0.062215
vt 0.685591 0.085130
vt 0.640124 0.060877
vt 0.862064 0.081436
vt 0.879312 0.105883
vt 0.715908 0.126707
vt 0.284091 0.019683
vt 0.254317 0.031888
vt 0.291515 0.043203
vt 0.882828 0.143921
vt 0.539229 0.135649
vt 0.537988 0.428797
vt 0.734348 0.343002
vt 0.250000 0.357567
vt 0.228378 0.325639
vt 0.227162 0.394038
vt 0.545454 0.472382
vt 0.556818 0.452699
vt 0.478423 0.338174
vt 0.362581 0.470555
vt 0.130988 0.370004
vt 0.919911 0.452465
vt 0.703770 0.431674
vt 0.727272 0.472382
vt 0.738636 0.452699
vt 0.563436 0.118573
vt 0.817529 0.112338
vt 0.815226 0.066360
vt 0.749999 0.114815
vt 0.272727 0.000000
vt 0.045454 0.078731
vn -0.0578 0.7989 -0.5987
vn 0.0384 -0.8870 0.4601
vn 0.6222 -0.6750 0.3966
vn 0.2047 -0.9609 0.1867
vn -0.2360 -0.6139 0.7533
vn 0.7213 -0.5181 -0.4596
vn -0.1582 0.9686 -0.1916
vn 0.1542 0.9072 0.3914
vn -0.5451 0.2768 0.7913
vn 0.0541 0.9983 0.0224
vn -0.6057 0.0169 0.7955
vn -0.0845 0.9964 0.0005
vn -0.1512 -0.8941 -0.4216
vn 0.7626 0.4510 -0.4637
vn 0.6725 -0.6799 -0.2923
vn -0.5468 -0.3371 0.7664
vn 0.1999 -0.5135 0.8345
vn -0.1243 0.9806 0.1515
vn 0.6940 0.5936 -0.4075
vn 0.3079 -0.5603 -0.7689
vn -0.0576 0.6935 0.7182
vn -0.5545 0.8315 0.0340
vn -0.4502 0.0274 -0.8925
vn -0.1331 -0.9437 -0.3030
vn -0.1257 0.9921 0.0008
vn -0.1639 -0.5260 -0.8346
vn 0.1235 0.9579 0.2593
vn -0.2872 0.5565 0.7797
vn -0.4129 -0.7463 0.5220
vn -0.1489 -0.9658 0.2121
vn 0.0312 0.9708 0.2379
vn -0.2410 0.8234 0.5138
vn 0.5647 -0.2169 -0.7963
vn 0.5802 0.2079 -0.7875
vn -0.7742 0.2225 0.5925
vn 0.7058 0.5503 -0.4461
vn 0.7448 0.4728 -0.4710
vn 0.5396 0.8060 -0.2432
vn -0.0583 0.2459 -0.9675
vn 0.1195 0.9879 -0.0989
vn -0.4839 -0.1368 0.8644
vn -0.3861 0.5475 -0.7424
vn -0.1741 0.4732 0.8636
vn 0.2034 0.9336 -0.2950
vn 0.7429 0.6427 -0.1871
vn 0.6624 0.3739 -0.6491
vn 0.6805 0.0838 -0.7280
vn -0.1600 0.3362 0.9281
vn 0.1775 -0.8826 -0.4353
vn -0.7211 -0.0485 0.6912
vn 0.4245 -0.3124 -0.8499
vn -0.2399 -0.7564 0.6085
vn 0.3092 0.7086 -0.6342
vn -0.3625 -0.5449 0.7561
vn -0.1869 -0.8803 0.4361
vn 0.8156 0.5706 -0.0956
vn -0.4952 -0.8485 -0.1864
vn 0.2618 -0.6832 -0.6816
vn 0.0425 -0.5657 -0.8235
vn -0.1963 0.1016 0.9753
vn 0.1338 0.4654 0.8749
vn -0.1624 -0.3646 -0.9169
vn 0.2916 0.0177 -0.9564
vn -0.3564 0.4125 -0.8383
vn -0.8621 -0.0310 0.5059
vn -0.1672 0.4382 0.8832
vn 0.3159 -0.8299 -0.4599
vn -0.2514 0.8894 0.3818
vn -0.7022 0.1818 0.6884
vn -0.6970 0.2335 0.6780
vn 0.5627 -0.7592 -0.3271
vn 0.3474 0.8600 -0.3738
vn 0.5101 0.3791 -0.7721
vn -0.2539 0.7458 -0.6159
vn -0.8848 -0.2624 -0.3852
vn -0.9826 0.1261 -0.1365
vn -0.1742 0.0621 -0.9827
vn -0.0281 0.9463 -0.3222
vn 0.2199 -0.9613 0.1660
vn -0.2167 -0.9377 -0.2715
vn -0.7946 -0.5184 0.3162
vn -0.2774 0.9549 -0.1055
vn -0.1937 -0.5815 0.7901
vn -0.2460 -0.5976 0.7631
vn 0.6483 0.4447 -0.6180
vn -0.4151 0.3564 0.8371
vn -0.2529 -0.6112 0.7500
vn -0.6015 0.1147 0.7906
vn 0.6546 -0.7397 -0.1562
vn 0.0313 -0.3841 0.9228
vn -0.0931 -0.8154 0.5714
vn 0.2264 -0.9705 0.0830
vn -0.5637 0.3881 0.7291
vn 0.8282 -0.3774 -0.4143
vn -0.4633 0.4037 0.7889
vn 0.0551 0.7778 -0.6261
vn 0.0109 -0.3778 0.9258
vn 0.6879 -0.3443 -0.6389
vn -0.1197 0.4600 -0.8798
vn -0.0158 -0.9889 -0.1474
vn -0.6094 -0.2922 -0.7371
vn 0.2194 0.1857 0.9578
vn -0.5929 0.7424 0.3121
vn -0.2161 -0.9583 0.1869
vn 0.7608 0.0890 -0.6428
vn 0.3459 -0.9310 0.1168
vn 0.0878 -0.9716 0.2198
vn -0.6502 -0.0938 0.7540
vn -0.5295 0.0159 -0.8481
vn 0.4153 0.7761 -0.4746
vn -0.9533 0.0797 0.2912
vn 0.7670 -0.6250 0.1455
vn -0.6095 0.5304 0.5893
vn 0.0927 0.9509 0.2952
vn -0.1319 0.8918 0.4327
vn 0.0829 0.9963 0.0210
vn 0.6892 -0.3135 -0.6532
vn -0.2467 0.5109 -0.8235
vn -0.3809 -0.9025 0.2011
vn -0.4571 0.8747 0.1611
vn 0.1695 -0.9855 -0.0044
vn -0.4468 -0.7701 0.4554
vn 0.3576 0.8743 -0.3284
vn 0.0312 0.0850 0.9959
vn 0.0596 -0.9982 0.0098
vn -0.5762 -0.3859 0.7204
vn -0.0161 0.8731 0.4873
vn -0.1082 -0.8382 -0.5345
vn -0.5571 0.4317 0.7094
vn 0.5984 -0.2883 -0.7475
vn 0.2186 0.5191 0.8263
vn -0.6107 0.3872 0.6907
vn 0.5939 -0.3644 -0.7173
vn 0.5077 -0.6454 -0.5707
vn 0.7445 0.2704 0.6104
vn -0.8389 0.5227 0.1516
vn 0.7230 -0.1687 -0.6699
vn -0.7402 0.2576 0.6210
vn 0.8635 0.2649 -0.4292
vn 0.7970 0.0736 -0.5995
vn -0.7576 -0.3762 0.5334
vn 0.5139 0.5212 -0.6813
vn -0.4707 -0.7620 0.4448
vn -0.0502 0.9587 0.2798
vn -0.0303 0.9994 -0.0166
vn -0.0834 0.9573 0.2768
vn 0.1080 0.9923 -0.0599
vn 0.0012 0.7455 -0.6665
vn -0.4997 -0.8662 0.0032
vn -0.4961 -0.8309 0.2519
vn -0.0783 -0.9748 0.2088
vn -0.7904 0.6062 -0.0879
vn -0.3309 -0.9432 -0.0299
vn -0.2755 0.5865 0.7617
vn -0.9369 0.1456 0.3179
vn -0.1582 -0.3439 0.9256
vn -0.0855 -0.9848 0.1510
vn -0.3633 0.0825 0.9280
vn 0.2685 -0.0050 -0.9633
vn 0.4551 0.8751 -0.1644
vn -0.9986 0.0090 0.0524
vn 0.7546 0.1786 -0.6315
vn 0.1951 0.9793 -0.0545
vn -0.4972 0.6639 0.5586
vn 0.5970 0.7937 -0.1165
vn -0.7243 -0.5477 0.4187
vn 0.6520 0.2702 -0.7084
vn 0.4451 -0.3565 -0.8215
vn 0.6048 -0.1169 -0.7877
vn -0.1896 -0.2590 0.9471
vn 0.3546 0.8426 -0.4053
vn -0.6572 -0.7046 0.2678
vn -0.0247 -0.7045 0.7092
vn -0.5688 -0.4784 0.6690
vn -0.3743 0.5534 0.7441
vn -0.8598 0.1269 0.4946
vn 0.1077 -0.9690 -0.2225
vn 0.3021 0.9512 -0.0628
vn -0.4880 0.6259 0.6083
vn -0.3510 -0.9135 0.2056
vn 0.2300 0.9730 0.0204
vn -0.8881 -0.4252 0.1747
vn 0.1863 -0.6563 -0.7311
vn 0.6941 0.4600 -0.5538
vn 0.6405 -0.2052 -0.7400
vn -0.3942 0.1747 -0.9023
vn 0.1474 0.7925 -0.5918
vn -0.4289 -0.2439 -0.8698
vn 0.4855 -0.1162 0.8665
vn 0.2169 0.9249 0.3124
vn -0.4548 0.2788 -0.8458
vn -0.0193 -0.4321 -0.9016
vn 0.1210 0.0998 -0.9876
vn 0.1298 0.0780 -0.9885
vn -0.1127 -0.7961 0.5946
vn -0.1978 -0.5783 0.7915
vn -0.7676 -0.4469 0.4594
vn 0.3826 0.9216 -0.0654
vn 0.0918 -0.9772 0.1916
vn 0.7636 0.5297 -0.3692
vn 0.0691 -0.8613 0.5033
vn -0.6965 0.2442 0.6748
vn 0.2822 0.9590 0.0252
vn -0.5046 -0.8631 0.0218
vn -0.5876 0.0439 0.8079
vn 0.0488 -0.6787 0.7328
vn -0.0323 0.7958 -0.6047
vn 0.2613 -0.8095 -0.5258
vn 0.6659 -0.4011 -0.6290
vn -0.1972 0.9545 0.2236
vn -0.1171 -0.8419 0.5268
vn 0.0395 -0.9682 -0.2469
vn -0.1706 -0.8517 -0.4955
vn -0.4510 -0.2454 0.8581
vn 0.6775 -0.3578 -0.6426
vn -0.1604 -0.3875 -0.9078
vn -0.1472 -0.5414 0.8278
vn -0.2000 -0.7902 0.5793
vn -0.9728 0.2279 0.0420
vn -0.9444 0.2043 -0.2577
vn -0.1589 -0.6386 0.7530
vn -0.8001 -0.5260 -0.2883
vn -0.4117 0.4343 0.8012
vn 0.6827 -0.3701 -0.6300
usemtl Material.001
s off
f 78/1/1 74/2/1 73/3/1
f 77/4/2 79/5/2 76/6/2
f 11/7/3 79/5/3 69/8/3
f 12/9/4 79/5/4 11/7/4
f 68/10/5 11/11/5 69/12/5
f 80/13/6 81/14/6 75/15/6
f 82/16/7 15/17/7 66/18/7
f 32/19/8 82/16/8 107/20/8
f 63/21/9 112/22/9 113/23/9
f 16/24/10 35/25/10 59/26/10
f 68/10/11 19/27/11 1/28/11
f 15/17/12 82/16/12 34/29/12
f 61/30/13 82/16/13 32/19/13
f 35/25/14 34/29/14 83/31/14
f 16/24/15 103/32/15 17/33/15
f 1/28/16 19/27/16 56/34/16
f 33/35/17 109/36/17 53/37/17
f 64/38/18 33/35/18 53/37/18
f 47/39/19 84/40/19 22/41/19
f 55/42/20 24/43/20 85/44/20
f 45/45/21 24/43/21 87/46/21
f 25/47/22 41/48/22 91/49/22
f 39/50/23 25/47/23 54/51/23
f 41/48/24 25/47/24 49/52/24
f 44/53/25 25/47/25 39/50/25
f 44/53/26 85/54/26 9/55/26
f 86/56/27 44/57/27 9/58/27
f 43/59/28 27/60/28 86/56/28
f 45/45/29 86/56/29 9/58/29
f 20/61/30 87/46/30 37/62/30
f 87/46/31 20/61/31 8/63/31
f 43/64/32 42/65/32 2/66/32
f 89/67/33 36/68/33 88/69/33
f 40/70/34 90/71/34 46/72/34
f 84/40/35 46/72/35 88/73/35
f 84/40/36 47/39/36 46/72/36
f 40/70/37 47/39/37 48/74/37
f 21/75/38 40/70/38 26/76/38
f 90/77/39 40/78/39 49/79/39
f 40/78/40 51/80/40 49/79/40
f 51/80/41 91/49/41 41/81/41
f 52/82/42 54/51/42 64/38/42
f 98/83/43 53/37/43 6/84/43
f 87/46/44 24/43/44 93/85/44
f 93/85/45 56/34/45 87/46/45
f 37/62/46 56/34/46 19/27/46
f 87/46/47 56/34/47 37/62/47
f 5/86/48 100/87/48 37/62/48
f 57/88/49 94/89/49 89/67/49
f 58/90/50 101/91/50 62/92/50
f 58/90/51 62/92/51 102/93/51
f 58/90/52 102/93/52 59/26/52
f 59/26/53 102/93/53 16/24/53
f 47/39/54 58/90/54 59/26/54
f 38/94/55 95/95/55 26/76/55
f 26/76/56 95/95/56 104/96/56
f 47/39/57 95/95/57 38/94/57
f 60/97/58 18/98/58 35/25/58
f 21/99/59 18/98/59 7/100/59
f 83/31/60 96/101/60 60/97/60
f 32/19/61 96/101/61 61/30/61
f 61/30/62 96/101/62 83/31/62
f 60/97/63 7/100/63 18/98/63
f 92/102/64 97/103/64 91/49/64
f 93/85/65 98/83/65 30/104/65
f 99/105/66 98/83/66 6/84/66
f 30/104/67 99/105/67 31/106/67
f 68/10/68 57/88/68 5/86/68
f 62/107/69 101/108/69 4/109/69
f 36/68/70 101/108/70 22/110/70
f 94/89/71 101/108/71 36/68/71
f 4/109/72 102/111/72 62/107/72
f 26/76/73 104/96/73 18/98/73
f 35/25/74 63/21/74 105/112/74
f 64/38/75 97/103/75 106/113/75
f 91/49/76 97/103/76 64/38/76
f 66/18/77 106/113/77 107/20/77
f 107/20/78 106/113/78 32/19/78
f 108/114/79 65/115/79 64/38/79
f 65/115/80 109/36/80 33/35/80
f 73/3/81 109/36/81 65/115/81
f 65/115/82 33/35/82 64/38/82
f 110/116/83 67/117/83 10/118/83
f 110/116/84 80/13/84 11/119/84
f 30/104/85 110/116/85 1/28/85
f 110/116/86 31/106/86 67/117/86
f 68/10/87 110/120/87 11/11/87
f 110/120/88 68/10/88 1/28/88
f 13/121/89 69/122/89 29/123/89
f 69/122/90 13/121/90 68/10/90
f 72/124/91 70/125/91 79/5/91
f 28/126/92 70/125/92 71/127/92
f 28/126/93 71/127/93 72/124/93
f 103/128/94 70/125/94 17/129/94
f 81/130/95 73/3/95 111/131/95
f 76/132/96 74/2/96 77/133/96
f 76/132/97 75/134/97 74/2/97
f 3/135/98 112/22/98 72/136/98
f 114/137/99 78/1/99 15/17/99
f 77/133/100 74/2/100 78/1/100
f 66/18/101 78/1/101 73/3/101
f 66/18/102 15/17/102 78/1/102
f 76/6/103 79/5/103 12/9/103
f 75/138/104 12/139/104 80/140/104
f 28/141/105 63/21/105 16/24/105
f 12/139/106 11/11/106 80/140/106
f 82/16/107 66/18/107 107/20/107
f 28/141/108 16/24/108 17/33/108
f 82/16/109 83/31/109 34/29/109
f 35/25/110 16/24/110 63/21/110
f 14/142/111 99/105/111 109/36/111
f 14/142/112 31/106/112 99/105/112
f 27/143/113 25/47/113 44/53/113
f 103/32/114 16/24/114 102/93/114
f 13/121/115 57/88/115 68/10/115
f 13/121/116 4/109/116 57/88/116
f 30/104/117 1/28/117 56/34/117
f 6/84/118 53/37/118 109/36/118
f 99/105/119 6/84/119 109/36/119
f 7/100/120 50/144/120 21/99/120
f 40/78/121 21/99/121 50/144/121
f 20/145/122 23/146/122 8/147/122
f 8/147/123 23/146/123 89/67/123
f 24/43/124 45/45/124 85/44/124
f 2/148/125 90/149/125 27/143/125
f 43/64/126 89/67/126 88/69/126
f 39/50/127 55/150/127 44/53/127
f 85/54/128 44/53/128 55/150/128
f 86/56/129 27/60/129 44/57/129
f 27/60/130 43/59/130 2/151/130
f 9/58/131 85/44/131 45/45/131
f 87/46/132 86/56/132 45/45/132
f 87/46/133 8/63/133 86/56/133
f 43/59/134 86/56/134 8/63/134
f 43/64/135 88/69/135 42/65/135
f 91/49/136 54/51/136 25/47/136
f 88/69/137 36/68/137 22/110/137
f 88/69/138 22/110/138 84/152/138
f 88/73/139 46/72/139 90/71/139
f 42/153/140 88/73/140 90/71/140
f 40/70/141 46/72/141 47/39/141
f 48/74/142 38/94/142 26/76/142
f 40/70/143 48/74/143 26/76/143
f 47/39/144 38/94/144 48/74/144
f 27/154/145 90/77/145 49/79/145
f 2/155/146 42/156/146 90/77/146
f 50/144/147 51/80/147 40/78/147
f 7/100/148 51/80/148 50/144/148
f 51/80/149 92/102/149 91/49/149
f 7/100/150 92/102/150 51/80/150
f 49/79/151 51/80/151 41/81/151
f 7/100/152 97/103/152 92/102/152
f 64/38/153 53/37/153 52/82/153
f 52/82/154 53/37/154 54/51/154
f 54/51/155 53/37/155 55/42/155
f 98/83/156 55/42/156 53/37/156
f 54/51/157 55/42/157 39/50/157
f 30/104/158 56/34/158 93/85/158
f 55/42/159 93/85/159 24/43/159
f 5/86/160 37/62/160 19/27/160
f 57/88/161 23/146/161 20/61/161
f 89/67/162 23/146/162 57/88/162
f 57/88/163 4/109/163 94/89/163
f 36/68/164 89/67/164 94/89/164
f 4/109/165 101/108/165 94/89/165
f 47/39/166 22/41/166 58/90/166
f 22/41/167 101/91/167 58/90/167
f 47/39/168 59/26/168 95/95/168
f 26/76/169 18/98/169 21/99/169
f 7/100/170 60/97/170 96/101/170
f 35/25/171 83/31/171 60/97/171
f 32/19/172 97/103/172 96/101/172
f 95/95/173 35/25/173 104/96/173
f 55/42/174 98/83/174 93/85/174
f 30/104/175 98/83/175 99/105/175
f 57/88/176 20/61/176 100/87/176
f 37/62/177 100/87/177 20/61/177
f 68/10/178 5/86/178 19/27/178
f 57/88/179 100/87/179 5/86/179
f 4/109/180 13/121/180 102/111/180
f 103/128/181 102/111/181 13/121/181
f 10/157/182 109/36/182 73/3/182
f 35/25/183 18/98/183 104/96/183
f 113/23/184 105/112/184 63/21/184
f 113/23/185 114/158/185 105/112/185
f 34/29/186 105/112/186 15/17/186
f 35/25/187 105/112/187 34/29/187
f 106/113/188 97/103/188 32/19/188
f 66/18/189 108/114/189 106/113/189
f 65/115/190 108/114/190 66/18/190
f 108/114/191 64/38/191 106/113/191
f 73/3/192 65/115/192 66/18/192
f 14/142/193 10/118/193 67/117/193
f 14/142/194 67/117/194 31/106/194
f 81/14/195 80/13/195 10/118/195
f 110/116/196 10/118/196 80/13/196
f 31/106/197 110/116/197 30/104/197
f 69/8/198 70/125/198 29/123/198
f 103/128/199 13/121/199 29/123/199
f 70/125/200 72/124/200 71/127/200
f 69/8/201 79/5/201 70/125/201
f 103/128/202 29/123/202 70/125/202
f 17/129/203 70/125/203 28/126/203
f 81/130/204 10/157/204 73/3/204
f 112/22/205 114/158/205 113/23/205
f 73/3/206 74/2/206 111/131/206
f 74/2/207 75/134/207 111/131/207
f 81/130/208 111/131/208 75/134/208
f 72/136/209 112/22/209 28/141/209
f 3/135/210 77/159/210 114/158/210
f 77/4/211 72/124/211 79/5/211
f 78/160/212 114/158/212 77/159/212
f 15/17/213 105/112/213 114/158/213
f 75/138/214 76/161/214 12/139/214
f 28/141/215 112/22/215 63/21/215
f 82/16/216 61/30/216 83/31/216
f 27/143/217 49/52/217 25/47/217
f 43/64/218 8/147/218 89/67/218
f 91/49/219 64/38/219 54/51/219
f 7/100/220 96/101/220 97/103/220
f 95/95/221 59/26/221 35/25/221
f 10/157/222 14/142/222 109/36/222
f 112/22/223 3/135/223 114/158/223
f 77/4/224 3/162/224 72/124/224
